<svg xmlns="http://www.w3.org/2000/svg" viewBox="0 0 1280 320" fill="none" role="img" aria-label="Mind Court">
  <rect width="1280" height="320" fill="#1B3A2D"/>

  <g stroke="#B8C840" stroke-width="1.25" fill="none" opacity="0.10">
    <rect x="160" y="44" width="960" height="232"/>
    <line x1="320" y1="44" x2="320" y2="276"/>
    <line x1="960" y1="44" x2="960" y2="276"/>
    <line x1="320" y1="116" x2="960" y2="116"/>
    <line x1="320" y1="204" x2="960" y2="204"/>
    <line x1="640" y1="116" x2="640" y2="204"/>
    <line x1="160" y1="160" x2="1120" y2="160" stroke-width="1.75"/>
    <line x1="640" y1="44" x2="640" y2="54"/>
    <line x1="640" y1="266" x2="640" y2="276"/>
  </g>

  <g transform="translate(454, 122)">
    <rect x="0" y="0" width="76" height="76" rx="10" fill="#FAF8F2"/>
    <rect x="12" y="12" width="52" height="52" stroke="#1B3A2D" stroke-width="2" fill="none"/>
    <line x1="12" y1="38" x2="64" y2="38" stroke="#1B3A2D" stroke-width="2"/>
    <line x1="38" y1="38" x2="38" y2="64" stroke="#1B3A2D" stroke-width="2"/>
    <circle cx="38" cy="24" r="4.5" fill="#B8C840"/>
  </g>

  <text x="554" y="178" font-family="Onest, ui-sans-serif, system-ui, -apple-system, 'Segoe UI', Helvetica, Arial, sans-serif" font-weight="700" font-size="54" letter-spacing="-1.2" fill="#FAF8F2">Mind Court</text>

  <text x="640" y="240" font-family="Inter, ui-sans-serif, system-ui, -apple-system, 'Segoe UI', Helvetica, Arial, sans-serif" font-weight="400" font-size="18" letter-spacing="0.02em" fill="#C2D1C8" text-anchor="middle">Tennis coaching and the mental game</text>
</svg>
